<svg width="68" height="68" viewBox="0 0 76 76" fill="none" xmlns="http://www.w3.org/2000/svg">
<g filter="url(#filter0_d_1_1166)">
<path d="M72 34C72 52.7777 56.7777 68 38 68C19.2223 68 4 52.7777 4 34C4 15.2223 19.2223 0 38 0C56.7777 0 72 15.2223 72 34Z" fill="#F8B76B"/>
</g>
<path fill-rule="evenodd" clip-rule="evenodd" d="M28.1112 24.6663H48.1112C49.3334 24.6663 50.3334 25.6663 50.3334 26.8885V41.3329C50.3334 42.5551 49.3334 43.5551 48.1112 43.5551H28.1112C26.8889 43.5551 25.8889 42.5551 25.8889 41.3329V26.8885C25.8889 25.6663 26.8889 24.6663 28.1112 24.6663ZM28.1112 26.8885V41.3329H37.0001V26.8885H28.1112ZM48.1112 41.3329H39.2223V26.8885H48.1112V41.3329ZM47.0001 30.7774H40.3334V32.444H47.0001V30.7774ZM40.3334 33.5551H47.0001V35.2218H40.3334V33.5551ZM47.0001 36.3329H40.3334V37.9996H47.0001V36.3329Z" fill="white"/>
<defs>
<filter id="filter0_d_1_1166" x="0" y="0" width="76" height="76" filterUnits="userSpaceOnUse" color-interpolation-filters="sRGB">
<feFlood flood-opacity="0" result="BackgroundImageFix"/>
<feColorMatrix in="SourceAlpha" type="matrix" values="0 0 0 0 0 0 0 0 0 0 0 0 0 0 0 0 0 0 127 0" result="hardAlpha"/>
<feOffset dy="4"/>
<feGaussianBlur stdDeviation="2"/>
<feColorMatrix type="matrix" values="0 0 0 0 0 0 0 0 0 0 0 0 0 0 0 0 0 0 0.1 0"/>
<feBlend mode="normal" in2="BackgroundImageFix" result="effect1_dropShadow_1_1166"/>
<feBlend mode="normal" in="SourceGraphic" in2="effect1_dropShadow_1_1166" result="shape"/>
</filter>
</defs>
</svg>
