<svg width="68" height="68" viewBox="0 0 68 68" fill="none" xmlns="http://www.w3.org/2000/svg">
<g filter="url(#filter0_d_109_1093)">
<path d="M64 30C64 46.5685 50.5685 60 34 60C17.4315 60 4 46.5685 4 30C4 13.4315 17.4315 0 34 0C50.5685 0 64 13.4315 64 30Z" fill="#F2F2F2"/>
</g>
<path fill-rule="evenodd" clip-rule="evenodd" d="M25.1112 21.6667H45.1112C46.3334 21.6667 47.3334 22.6667 47.3334 23.8889V38.3333C47.3334 39.5555 46.3334 40.5555 45.1112 40.5555H25.1112C23.8889 40.5555 22.8889 39.5555 22.8889 38.3333V23.8889C22.8889 22.6667 23.8889 21.6667 25.1112 21.6667ZM25.1112 23.8889V38.3333H34.0001V23.8889H25.1112ZM45.1112 38.3333H36.2223V23.8889H45.1112V38.3333ZM44.0001 27.7778H37.3334V29.4444H44.0001V27.7778ZM37.3334 30.5555H44.0001V32.2222H37.3334V30.5555ZM44.0001 33.3333H37.3334V35H44.0001V33.3333Z" fill="#F8B76B"/>
<defs>
<filter id="filter0_d_109_1093" x="0" y="0" width="68" height="68" filterUnits="userSpaceOnUse" color-interpolation-filters="sRGB">
<feFlood flood-opacity="0" result="BackgroundImageFix"/>
<feColorMatrix in="SourceAlpha" type="matrix" values="0 0 0 0 0 0 0 0 0 0 0 0 0 0 0 0 0 0 127 0" result="hardAlpha"/>
<feOffset dy="4"/>
<feGaussianBlur stdDeviation="2"/>
<feColorMatrix type="matrix" values="0 0 0 0 0 0 0 0 0 0 0 0 0 0 0 0 0 0 0.1 0"/>
<feBlend mode="normal" in2="BackgroundImageFix" result="effect1_dropShadow_109_1093"/>
<feBlend mode="normal" in="SourceGraphic" in2="effect1_dropShadow_109_1093" result="shape"/>
</filter>
</defs>
</svg>
